<svg id="logo" xmlns="http://www.w3.org/2000/svg" viewBox="0 0 336.7 244.08">
  <g id="tagline">
    <path d="M122.1,169.65s-3-1.77-.75,7.57,3.53,12.62,0,13.21-5.93-1.69-7.69-9.43-4.46-14.72,0-15.31,3.45,2,5.46,1.69,1.77-1.94,4.88-1.77,4,1.93,5.72,1.6,2.28-1.72,5.22-1.62,6.06.19,9.25,11.12,2.61,13,0,13.55-7-3.45-8.24-15.57c0,0-.17-5-2.44-4.87s-1,8,.49,12.19,1.61,7.83-1.33,8.08-6.48-3.72-7.24-12S122.1,169.65,122.1,169.65Z" fill="#00aeef"/>
    <path d="M148.94,179s-3.37-14,1.26-13.8,5.89,4.63,7.07,9.5,2.1,9.51,3.61,9.43.26-6.4-.92-10.18-1.18-8.59,2.19-8.75,4.72,4,4.72,4,6.21,15,.83,19.6S152.22,191.35,148.94,179Z" fill="#00aeef"/>
    <path d="M181.07,173.26s9,2.86,9,8.33-2,8.17-6.56,8.92-9.17-2.94-8.41-8c0,0,1-2.78,4.29.76s5.05-2.61,2.19-3.29-10.85-2.27-10.52-8.58,7-8.49,11.27-7.4,5.56,3.7,4.21,5.72-2.88.37-3.78-.59C181.16,167.46,177.71,170.91,181.07,173.26Z" fill="#00aeef"/>
    <path d="M193.06,165.5s-4,.08-2.3,7.68,3.38,16.22,8.29,16.83.93-12.29.47-14.21S197.44,164.73,193.06,165.5Z" fill="#00aeef"/>
    <path d="M191.45,158s-2.77-.15-2.69,3.08,3.3,2.69,3.3,2.69,2.46-.58,2.31-2.87S191.45,158,191.45,158Z" fill="#00aeef"/>
    <path d="M213.34,169.88s-2.15-.73-.61,8.25c1.26,7.39,4.61,7.58,7.38,5.89,3.33-2,5.22.84,3.3,2.92s-9,5.07-13.52,1.61c-6-4.6-8-14.21-3.31-20.67s13.83-2.7,13.06,2.38c-.52,3.45-3.53,3.31-4.14,1.31C215.5,171.57,215,169.5,213.34,169.88Z" fill="#00aeef"/>
    <path d="M254.49,169.88s-2.15-.73-.62,8.25c1.27,7.39,4.61,7.58,7.38,5.89,3.33-2,5.23.84,3.3,2.92s-9,5.07-13.52,1.61c-6-4.6-8-14.21-3.3-20.67s13.83-2.7,13.06,2.38c-.52,3.45-3.53,3.31-4.15,1.31C256.64,171.57,256.18,169.5,254.49,169.88Z" fill="#00aeef"/>
    <path d="M296,184.33s-2.76-.16-2.69,3.07,3.31,2.7,3.31,2.7,2.45-.59,2.3-2.87S296,184.33,296,184.33Z" fill="#00aeef"/>
    <path d="M277.15,165.14c-3.91,0-11.88,1.39-11.06,11.38s7.71,14,15.05,13.9,8.84-3.41,9-12.64S282.17,165.15,277.15,165.14Zm3,22.09c-3.92-.48-5.56-7.24-5.82-12.3s2.85-5.75,2.85-5.75c4-.25,4.17,5.69,4.48,7.21S284.11,187.7,280.19,187.23Z" fill="#00aeef"/>
  </g>
  <g id="hauer">
    <path d="M304,143.35S293.11,105,290.71,94.79c-.31-1.32-3.54-7,2.34-6.87s17.32,0,17.32,0,3.6.49,3.38,6.13,0,12,1.58,5.75,6.54-15,16.37-9.88c8.24,4.29,4.17,13.93,2.58,16-2.08,2.74-8.14,6.47-11.29.8,0,0-2.7-1.86-2,3.32s.23,23.72,2.94,33.29Z" fill="#00aeef"/>
    <path d="M152.74,88.12,134,87.92c-4.26,5.78-3.51,1.19-8.48.2s-26.48,1-24.29,25.28,18.69,29.15,27,29.58a30.85,30.85,0,0,0,15.55-3.51c0,1.8,3,3.39,3,3.39s5.77.2,12.14,0,8-1.4,8-2.19S152.74,88.12,152.74,88.12Zm-17.37,47.35c-7.87,2.58-9.4-7.39-12.09-18.49-2.57-10.59-4.27-21.51.39-22.1,7.91-1,12.74,9.56,14.93,23.1S142.65,133.09,135.37,135.47Z" fill="#00aeef"/>
    <path d="M166.14,87.92s6,32.69,9.59,40.88c3.2,7.36,6.11,14.6,21.17,14.55,12.86,0,14.27-4.47,15.88-6.28,0,0,1.81-2.62,2.21,3.42v2.86H235.7s-3.82-22.77-7-34S223,87.92,223,87.92h-20.1a8.92,8.92,0,0,0-1,6.9c1,4.05,9.86,31.59,8.65,34s-8.24,10.25-11.46,3.82-7.24-33-7.84-35.59-1.61-8.43-5.43-9.14Z" fill="#00aeef"/>
    <path d="M286,119.38c-3.62-.81-7.64,4.62-6.83,10.45,0,0-18.1,17.65-20.91-14.2H288s-1-29-29.15-28.82-32.37,53.17,6.23,56.54c0,0,21.31,2,24.33-18.14C289.38,125.21,289.58,120.18,286,119.38ZM254.72,99.91c.06-2.85,2.06-7.61,5.83-7s4,2.81,5.55,9.67c.94,4.22-5,4.08-5,4.08C256.65,107.38,254.66,102.75,254.72,99.91Z" fill="#00aeef"/>
  </g>
  <g id="single">
    <path d="M51.29,97.22l-24.63-93s-2.47-8.7-6.86-1.15c-4.6,7.92-15,24.56-15,24.56s-.76,4.78,2,5.79,4-4,5.79-2,18.88,75.76,18.88,75.76L55.85,196a20.57,20.57,0,0,1,0,12.59c-2.26,6.29,0,9.06,3.28,7.55s7.58-15.25,15.1-23.66c2.47-2.77-2.77-16.86-4.28-22.9s-15.61-58.79-15.86-61,8.81-12,11.08-10.24,6.82,21.64,8.71,29c6.39,24.83,11.75,34.88,8.91,38.92-3.39,4.8,2,9.38,4.53,3.08S100.15,150,100.15,150s-8.3-34.12-10.82-41.35-7.88-26.3-27.69-17.54A106.52,106.52,0,0,0,51.29,97.22Z" fill="#00aeef"/>
    <path d="M12.28,119.23c3.21,7.23,6.94,12.2,12.88,19.12,7.19,8.36,3.6,28.6-1.7,39.2s-5.69,49.37,49.21,46.34c0,0,16.57-1.89,27.4-8.33s1.75,15.14-14.53,22.72S42.91,246.94,24,236,1.11,200.39,11.33,180.71s4.54-25-2.27-32.17S-7.86,119,10.1,99.91C23.46,85.69,25,96,15.5,103.11,12.49,105.35,9.91,113.89,12.28,119.23Z" fill="#00aeef"/>
  </g>
</svg>
